<svg id="visual" viewBox="0 0 960 540" width="960" height="540" xmlns="http://www.w3.org/2000/svg" xmlns:xlink="http://www.w3.org/1999/xlink" version="1.1"><rect x="0" y="0" width="960" height="540" fill="#06283D"></rect><defs><linearGradient id="grad1_0" x1="43.8%" y1="100%" x2="100%" y2="0%"><stop offset="14.444444444444446%" stop-color="#05436a" stop-opacity="1"></stop><stop offset="85.55555555555554%" stop-color="#05436a" stop-opacity="1"></stop></linearGradient></defs><defs><linearGradient id="grad1_1" x1="43.8%" y1="100%" x2="100%" y2="0%"><stop offset="14.444444444444446%" stop-color="#05436a" stop-opacity="1"></stop><stop offset="85.55555555555554%" stop-color="#053f63" stop-opacity="1"></stop></linearGradient></defs><defs><linearGradient id="grad1_2" x1="43.8%" y1="100%" x2="100%" y2="0%"><stop offset="14.444444444444446%" stop-color="#043b5d" stop-opacity="1"></stop><stop offset="85.55555555555554%" stop-color="#053f63" stop-opacity="1"></stop></linearGradient></defs><defs><linearGradient id="grad1_3" x1="43.8%" y1="100%" x2="100%" y2="0%"><stop offset="14.444444444444446%" stop-color="#043b5d" stop-opacity="1"></stop><stop offset="85.55555555555554%" stop-color="#043756" stop-opacity="1"></stop></linearGradient></defs><defs><linearGradient id="grad1_4" x1="43.8%" y1="100%" x2="100%" y2="0%"><stop offset="14.444444444444446%" stop-color="#053350" stop-opacity="1"></stop><stop offset="85.55555555555554%" stop-color="#043756" stop-opacity="1"></stop></linearGradient></defs><defs><linearGradient id="grad1_5" x1="43.8%" y1="100%" x2="100%" y2="0%"><stop offset="14.444444444444446%" stop-color="#053350" stop-opacity="1"></stop><stop offset="85.55555555555554%" stop-color="#053049" stop-opacity="1"></stop></linearGradient></defs><defs><linearGradient id="grad1_6" x1="43.8%" y1="100%" x2="100%" y2="0%"><stop offset="14.444444444444446%" stop-color="#062c43" stop-opacity="1"></stop><stop offset="85.55555555555554%" stop-color="#053049" stop-opacity="1"></stop></linearGradient></defs><defs><linearGradient id="grad1_7" x1="43.8%" y1="100%" x2="100%" y2="0%"><stop offset="14.444444444444446%" stop-color="#062c43" stop-opacity="1"></stop><stop offset="85.55555555555554%" stop-color="#06283d" stop-opacity="1"></stop></linearGradient></defs><defs><linearGradient id="grad2_0" x1="0%" y1="100%" x2="56.3%" y2="0%"><stop offset="14.444444444444446%" stop-color="#05436a" stop-opacity="1"></stop><stop offset="85.55555555555554%" stop-color="#05436a" stop-opacity="1"></stop></linearGradient></defs><defs><linearGradient id="grad2_1" x1="0%" y1="100%" x2="56.3%" y2="0%"><stop offset="14.444444444444446%" stop-color="#053f63" stop-opacity="1"></stop><stop offset="85.55555555555554%" stop-color="#05436a" stop-opacity="1"></stop></linearGradient></defs><defs><linearGradient id="grad2_2" x1="0%" y1="100%" x2="56.3%" y2="0%"><stop offset="14.444444444444446%" stop-color="#053f63" stop-opacity="1"></stop><stop offset="85.55555555555554%" stop-color="#043b5d" stop-opacity="1"></stop></linearGradient></defs><defs><linearGradient id="grad2_3" x1="0%" y1="100%" x2="56.3%" y2="0%"><stop offset="14.444444444444446%" stop-color="#043756" stop-opacity="1"></stop><stop offset="85.55555555555554%" stop-color="#043b5d" stop-opacity="1"></stop></linearGradient></defs><defs><linearGradient id="grad2_4" x1="0%" y1="100%" x2="56.3%" y2="0%"><stop offset="14.444444444444446%" stop-color="#043756" stop-opacity="1"></stop><stop offset="85.55555555555554%" stop-color="#053350" stop-opacity="1"></stop></linearGradient></defs><defs><linearGradient id="grad2_5" x1="0%" y1="100%" x2="56.3%" y2="0%"><stop offset="14.444444444444446%" stop-color="#053049" stop-opacity="1"></stop><stop offset="85.55555555555554%" stop-color="#053350" stop-opacity="1"></stop></linearGradient></defs><defs><linearGradient id="grad2_6" x1="0%" y1="100%" x2="56.3%" y2="0%"><stop offset="14.444444444444446%" stop-color="#053049" stop-opacity="1"></stop><stop offset="85.55555555555554%" stop-color="#062c43" stop-opacity="1"></stop></linearGradient></defs><defs><linearGradient id="grad2_7" x1="0%" y1="100%" x2="56.3%" y2="0%"><stop offset="14.444444444444446%" stop-color="#06283d" stop-opacity="1"></stop><stop offset="85.55555555555554%" stop-color="#062c43" stop-opacity="1"></stop></linearGradient></defs><g transform="translate(960, 540)"><path d="M-486 0C-477.3 -62.4 -468.7 -124.8 -447.2 -185.2C-425.6 -245.7 -391.3 -304.2 -343.7 -343.7C-296 -383.1 -235.1 -403.5 -175.7 -424.1C-116.2 -444.6 -58.1 -465.3 0 -486L0 0Z" fill="#062a40"></path><path d="M-425.2 0C-417.7 -54.6 -410.1 -109.2 -391.3 -162.1C-372.4 -215 -342.4 -266.2 -300.7 -300.7C-259 -335.2 -205.7 -353.1 -153.7 -371.1C-101.6 -389 -50.8 -407.1 0 -425.2L0 0Z" fill="#052e46"></path><path d="M-364.5 0C-358 -46.8 -351.5 -93.6 -335.4 -138.9C-319.2 -184.3 -293.5 -228.1 -257.7 -257.7C-222 -287.3 -176.4 -302.6 -131.7 -318C-87.1 -333.5 -43.6 -349 0 -364.5L0 0Z" fill="#05314d"></path><path d="M-303.7 0C-298.3 -39 -292.9 -78 -279.5 -115.8C-266 -153.5 -244.6 -190.1 -214.8 -214.8C-185 -239.4 -147 -252.2 -109.8 -265C-72.6 -277.9 -36.3 -290.8 0 -303.7L0 0Z" fill="#053553"></path><path d="M-243 0C-238.7 -31.2 -234.3 -62.4 -223.6 -92.6C-212.8 -122.8 -195.6 -152.1 -171.8 -171.8C-148 -191.6 -117.6 -201.8 -87.8 -212C-58.1 -222.3 -29 -232.7 0 -243L0 0Z" fill="#043959"></path><path d="M-182.2 0C-179 -23.4 -175.8 -46.8 -167.7 -69.5C-159.6 -92.1 -146.7 -114.1 -128.9 -128.9C-111 -143.7 -88.2 -151.3 -65.9 -159C-43.6 -166.7 -21.8 -174.5 0 -182.2L0 0Z" fill="#043d60"></path><path d="M-121.5 0C-119.3 -15.6 -117.2 -31.2 -111.8 -46.3C-106.4 -61.4 -97.8 -76 -85.9 -85.9C-74 -95.8 -58.8 -100.9 -43.9 -106C-29 -111.2 -14.5 -116.3 0 -121.5L0 0Z" fill="#054167"></path><path d="M-60.7 0C-59.7 -7.8 -58.6 -15.6 -55.9 -23.2C-53.2 -30.7 -48.9 -38 -43 -43C-37 -47.9 -29.4 -50.4 -22 -53C-14.5 -55.6 -7.3 -58.2 0 -60.7L0 0Z" fill="#05436a"></path></g><g transform="translate(0, 0)"><path d="M486 0C484.4 74 482.8 148.1 434.2 179.9C385.6 211.6 290 201.2 248.2 248.2C206.4 295.2 218.4 399.8 186 449C153.6 498.2 76.8 492.1 0 486L0 0Z" fill="#062a40"></path><path d="M425.3 0C423.9 64.8 422.5 129.6 379.9 157.4C337.4 185.2 253.8 176 217.2 217.2C180.6 258.3 191.1 349.8 162.7 392.9C134.4 435.9 67.2 430.6 0 425.3L0 0Z" fill="#052e46"></path><path d="M364.5 0C363.3 55.5 362.1 111.1 325.7 134.9C289.2 158.7 217.5 150.9 186.1 186.1C154.8 221.4 163.8 299.8 139.5 336.8C115.2 373.7 57.6 369.1 0 364.5L0 0Z" fill="#05314d"></path><path d="M303.8 0C302.8 46.3 301.8 92.6 271.4 112.4C241 132.3 181.3 125.7 155.1 155.1C129 184.5 136.5 249.9 116.2 280.6C96 311.4 48 307.6 0 303.8L0 0Z" fill="#053553"></path><path d="M243 0C242.2 37 241.4 74 217.1 89.9C192.8 105.8 145 100.6 124.1 124.1C103.2 147.6 109.2 199.9 93 224.5C76.8 249.1 38.4 246.1 0 243L0 0Z" fill="#043959"></path><path d="M182.3 0C181.7 27.8 181.1 55.5 162.8 67.4C144.6 79.4 108.8 75.4 93.1 93.1C77.4 110.7 81.9 149.9 69.7 168.4C57.6 186.8 28.8 184.5 0 182.3L0 0Z" fill="#043d60"></path><path d="M121.5 0C121.1 18.5 120.7 37 108.6 45C96.4 52.9 72.5 50.3 62 62C51.6 73.8 54.6 99.9 46.5 112.3C38.4 124.6 19.2 123 0 121.5L0 0Z" fill="#054167"></path><path d="M60.8 0C60.6 9.3 60.4 18.5 54.3 22.5C48.2 26.5 36.3 25.1 31 31C25.8 36.9 27.3 50 23.2 56.1C19.2 62.3 9.6 61.5 0 60.8L0 0Z" fill="#05436a"></path></g></svg>